<svg width="640" height="244" viewBox="0 0 640 244" fill="none" xmlns="http://www.w3.org/2000/svg">
<path d="M618.062 88.3137C616.814 88.3137 616.149 87.7316 616.066 86.5674L614.694 77.2121C614.694 77.0458 614.611 76.8795 614.444 76.7132C614.278 76.5468 614.07 76.4637 613.821 76.4637H602.844C602.594 76.4637 602.386 76.5468 602.22 76.7132C602.054 76.8795 601.971 77.0458 601.971 77.2121L600.723 86.5674C600.64 87.7316 599.975 88.3137 598.727 88.3137H579.144C577.813 88.3137 577.273 87.6484 577.522 86.3179L595.235 2.61947C595.484 1.53842 596.191 0.997887 597.355 0.997887H620.057C621.222 0.997887 621.928 1.53842 622.178 2.61947L639.891 86.3179V86.8168C639.891 87.8147 639.308 88.3137 638.144 88.3137H618.062ZM604.715 57.7532C604.715 58.2521 604.923 58.5016 605.338 58.5016H611.201C611.783 58.5016 611.991 58.2521 611.825 57.7532L608.457 35.3005C608.374 34.9679 608.249 34.8016 608.083 34.8016C607.916 34.8016 607.792 34.9679 607.708 35.3005L604.715 57.7532Z" fill="#F4EFE6"/>
<path d="M551.537 2.86894C551.537 2.28684 551.703 1.82947 552.036 1.49683C552.368 1.1642 552.826 0.997887 553.408 0.997887H572.867C573.449 0.997887 573.906 1.1642 574.239 1.49683C574.572 1.82947 574.738 2.28684 574.738 2.86894V86.4426C574.738 87.0247 574.572 87.4821 574.239 87.8147C573.906 88.1474 573.449 88.3137 572.867 88.3137H550.664C549.583 88.3137 548.917 87.7731 548.668 86.6921L539.188 48.8968C539.105 48.6474 538.938 48.5226 538.689 48.5226C538.439 48.5226 538.315 48.6889 538.315 49.0216L538.564 86.4426C538.564 87.0247 538.398 87.4821 538.065 87.8147C537.733 88.1474 537.275 88.3137 536.693 88.3137H517.234C516.652 88.3137 516.195 88.1474 515.862 87.8147C515.529 87.4821 515.363 87.0247 515.363 86.4426V2.86894C515.363 2.28684 515.529 1.82947 515.862 1.49683C516.195 1.1642 516.652 0.997887 517.234 0.997887H539.188C540.269 0.997887 540.934 1.53842 541.184 2.61947L550.788 40.5395C550.872 40.8721 551.038 41.0384 551.287 41.0384C551.537 41.0384 551.662 40.8721 551.662 40.5395L551.537 2.86894Z" fill="#F4EFE6"/>
<path d="M489.763 88.3137C489.181 88.3137 488.723 88.1474 488.391 87.8147C488.058 87.4821 487.892 87.0247 487.892 86.4426V2.86894C487.892 2.28684 488.058 1.82947 488.391 1.49683C488.723 1.1642 489.181 0.997887 489.763 0.997887H509.471C510.053 0.997887 510.511 1.1642 510.843 1.49683C511.176 1.82947 511.342 2.28684 511.342 2.86894V86.4426C511.342 87.0247 511.176 87.4821 510.843 87.8147C510.511 88.1474 510.053 88.3137 509.471 88.3137H489.763Z" fill="#F4EFE6"/>
<path d="M436.589 88.3137C436.007 88.3137 435.55 88.1474 435.217 87.8147C434.884 87.4821 434.718 87.0247 434.718 86.4426V2.86894C434.718 2.28684 434.884 1.82947 435.217 1.49683C435.55 1.1642 436.007 0.997887 436.589 0.997887H456.297C456.88 0.997887 457.337 1.1642 457.67 1.49683C458.002 1.82947 458.168 2.28684 458.168 2.86894V67.4826C458.168 67.9816 458.418 68.231 458.917 68.231H483.241C483.823 68.231 484.28 68.3974 484.613 68.73C484.945 69.0626 485.112 69.52 485.112 70.1021V86.4426C485.112 87.0247 484.945 87.4821 484.613 87.8147C484.28 88.1474 483.823 88.3137 483.241 88.3137H436.589Z" fill="#F4EFE6"/>
<path d="M403.736 89.3116C395.337 89.3116 388.602 86.9 383.529 82.0768C378.54 77.2537 376.045 70.7674 376.045 62.6179V26.6937C376.045 18.5442 378.54 12.0579 383.529 7.23473C388.602 2.41158 395.337 0 403.736 0C412.135 0 418.83 2.41158 423.819 7.23473C428.892 12.0579 431.428 18.5442 431.428 26.6937V62.6179C431.428 70.7674 428.892 77.2537 423.819 82.0768C418.83 86.9 412.135 89.3116 403.736 89.3116ZM403.736 69.2289C405.067 69.2289 406.106 68.73 406.855 67.7321C407.603 66.7342 407.977 65.3621 407.977 63.6158V25.6958C407.977 23.9495 407.603 22.5774 406.855 21.5795C406.106 20.5816 405.067 20.0826 403.736 20.0826C402.406 20.0826 401.366 20.5816 400.618 21.5795C399.87 22.5774 399.495 23.9495 399.495 25.6958V63.6158C399.495 65.3621 399.87 66.7342 400.618 67.7321C401.366 68.73 402.406 69.2289 403.736 69.2289Z" fill="#F4EFE6"/>
<path d="M352.191 88.3137C351.11 88.3137 350.445 87.7731 350.195 86.6921L342.586 55.3831C342.42 54.9674 342.254 54.7595 342.087 54.7595C341.755 54.7595 341.588 55.0089 341.588 55.5079V86.4426C341.588 87.0247 341.422 87.4821 341.089 87.8147C340.757 88.1474 340.299 88.3137 339.717 88.3137H320.009C319.427 88.3137 318.969 88.1474 318.637 87.8147C318.304 87.4821 318.138 87.0247 318.138 86.4426V2.86894C318.138 2.28684 318.304 1.82947 318.637 1.49683C318.969 1.1642 319.427 0.997887 320.009 0.997887H348.075C353.064 0.997887 357.471 2.20368 361.297 4.61526C365.205 6.94368 368.24 10.2284 370.402 14.4695C372.565 18.6274 373.646 23.4089 373.646 28.8142C373.646 33.3879 372.856 37.5042 371.276 41.1631C369.696 44.7389 367.409 47.6495 364.415 49.8947C364.082 50.1442 363.958 50.4768 364.041 50.8926L374.145 86.1931C374.228 86.3595 374.269 86.5674 374.269 86.8168C374.269 87.8147 373.687 88.3137 372.523 88.3137H352.191ZM342.337 21.0805C341.838 21.0805 341.588 21.33 341.588 21.8289V36.1737C341.588 36.6726 341.838 36.9221 342.337 36.9221H343.958C345.788 36.9221 347.285 36.2568 348.449 34.9263C349.613 33.5126 350.195 31.5584 350.195 29.0637C350.195 26.4858 349.613 24.5316 348.449 23.201C347.368 21.7874 345.871 21.0805 343.958 21.0805H342.337Z" fill="#F4EFE6"/>
<path d="M293.658 88.3137C292.411 88.3137 291.745 87.7316 291.662 86.5674L290.29 77.2121C290.29 77.0458 290.207 76.8795 290.041 76.7132C289.874 76.5468 289.667 76.4637 289.417 76.4637H278.44C278.191 76.4637 277.983 76.5468 277.817 76.7132C277.65 76.8795 277.567 77.0458 277.567 77.2121L276.32 86.5674C276.237 87.7316 275.571 88.3137 274.324 88.3137H254.74C253.41 88.3137 252.869 87.6484 253.119 86.3179L270.831 2.61947C271.081 1.53842 271.788 0.997887 272.952 0.997887H295.654C296.818 0.997887 297.525 1.53842 297.774 2.61947L315.487 86.3179V86.8168C315.487 87.8147 314.905 88.3137 313.741 88.3137H293.658ZM280.311 57.7532C280.311 58.2521 280.519 58.5016 280.935 58.5016H286.798C287.38 58.5016 287.588 58.2521 287.421 57.7532L284.053 35.3005C283.97 34.9679 283.845 34.8016 283.679 34.8016C283.513 34.8016 283.388 34.9679 283.305 35.3005L280.311 57.7532Z" fill="#F4EFE6"/>
<path d="M225.812 89.3116C217.579 89.3116 210.968 86.9 205.979 82.0768C200.989 77.2537 198.495 70.8089 198.495 62.7426V26.3195C198.495 18.2532 200.948 11.85 205.854 7.11C210.844 2.37 217.496 0 225.812 0C234.045 0 240.656 2.37 245.645 7.11C250.635 11.85 253.129 18.2532 253.129 26.3195V26.9432C253.129 27.5253 252.963 28.0242 252.63 28.44C252.298 28.7726 251.84 28.9389 251.258 28.9389L231.55 29.5626C230.303 29.5626 229.679 28.9805 229.679 27.8163V24.6979C229.679 23.2842 229.305 22.1616 228.556 21.33C227.891 20.4984 226.976 20.0826 225.812 20.0826C224.648 20.0826 223.691 20.4984 222.943 21.33C222.278 22.1616 221.945 23.2842 221.945 24.6979V64.7384C221.945 66.1521 222.278 67.2747 222.943 68.1063C223.691 68.8547 224.648 69.2289 225.812 69.2289C226.976 69.2289 227.891 68.8547 228.556 68.1063C229.305 67.2747 229.679 66.1521 229.679 64.7384V61.3705C229.679 60.2063 230.303 59.6242 231.55 59.6242L251.258 60.2479C251.84 60.2479 252.298 60.4558 252.63 60.8716C252.963 61.2042 253.129 61.6616 253.129 62.2437V62.7426C253.129 68.0647 251.965 72.7632 249.637 76.8379C247.391 80.8295 244.19 83.9063 240.032 86.0684C235.957 88.2305 231.217 89.3116 225.812 89.3116Z" fill="#F4EFE6"/>
<path d="M551 192.314C549.919 192.314 549.254 191.773 549.004 190.692L541.395 159.383C541.229 158.967 541.063 158.759 540.896 158.759C540.564 158.759 540.397 159.009 540.397 159.508V190.443C540.397 191.025 540.231 191.482 539.898 191.815C539.566 192.147 539.108 192.314 538.526 192.314H518.818C518.236 192.314 517.778 192.147 517.446 191.815C517.113 191.482 516.947 191.025 516.947 190.443V106.869C516.947 106.287 517.113 105.829 517.446 105.497C517.778 105.164 518.236 104.998 518.818 104.998H546.884C551.873 104.998 556.281 106.204 560.106 108.615C564.014 110.944 567.05 114.228 569.212 118.469C571.374 122.627 572.455 127.409 572.455 132.814C572.455 137.388 571.665 141.504 570.085 145.163C568.505 148.739 566.218 151.649 563.224 153.895C562.892 154.144 562.767 154.477 562.85 154.893L572.954 190.193C573.037 190.359 573.078 190.567 573.078 190.817C573.078 191.815 572.496 192.314 571.332 192.314H551ZM541.146 125.081C540.647 125.081 540.397 125.33 540.397 125.829V140.174C540.397 140.673 540.647 140.922 541.146 140.922H542.767C544.597 140.922 546.094 140.257 547.258 138.926C548.422 137.513 549.004 135.558 549.004 133.064C549.004 130.486 548.422 128.532 547.258 127.201C546.177 125.787 544.68 125.081 542.767 125.081H541.146Z" fill="#F4EFE6"/>
<path d="M513.911 123.209C513.911 123.792 513.745 124.249 513.412 124.582C513.08 124.914 512.622 125.081 512.04 125.081H488.215C487.717 125.081 487.467 125.33 487.467 125.829V137.804C487.467 138.303 487.717 138.552 488.215 138.552H500.564C501.147 138.552 501.604 138.718 501.937 139.051C502.269 139.384 502.435 139.841 502.435 140.423V156.764C502.435 157.346 502.269 157.803 501.937 158.136C501.604 158.468 501.147 158.635 500.564 158.635H488.215C487.717 158.635 487.467 158.884 487.467 159.383V171.483C487.467 171.982 487.717 172.231 488.215 172.231H512.04C512.622 172.231 513.08 172.397 513.412 172.73C513.745 173.063 513.911 173.52 513.911 174.102V190.443C513.911 191.025 513.745 191.482 513.412 191.815C513.08 192.147 512.622 192.314 512.04 192.314H465.888C465.305 192.314 464.848 192.147 464.515 191.815C464.183 191.482 464.017 191.025 464.017 190.443V106.869C464.017 106.287 464.183 105.829 464.515 105.497C464.848 105.164 465.305 104.998 465.888 104.998H512.04C512.622 104.998 513.08 105.164 513.412 105.497C513.745 105.829 513.911 106.287 513.911 106.869V123.209Z" fill="#F4EFE6"/>
<path d="M438.416 192.314C437.834 192.314 437.377 192.147 437.044 191.815C436.712 191.482 436.545 191.025 436.545 190.443V106.869C436.545 106.287 436.712 105.829 437.044 105.497C437.377 105.164 437.834 104.998 438.416 104.998H458.125C458.707 104.998 459.164 105.164 459.497 105.497C459.829 105.829 459.996 106.287 459.996 106.869V190.443C459.996 191.025 459.829 191.482 459.497 191.815C459.164 192.147 458.707 192.314 458.125 192.314H438.416Z" fill="#F4EFE6"/>
<path d="M409.551 106.37C410.05 105.455 410.799 104.998 411.797 104.998H431.256C431.838 104.998 432.295 105.164 432.628 105.497C432.96 105.829 433.127 106.287 433.127 106.869V190.443C433.127 191.025 432.96 191.482 432.628 191.815C432.295 192.147 431.838 192.314 431.256 192.314H411.547C410.965 192.314 410.508 192.147 410.175 191.815C409.842 191.482 409.676 191.025 409.676 190.443V139.675C409.676 139.342 409.551 139.134 409.302 139.051C409.136 138.968 408.969 139.093 408.803 139.425L401.693 151.4L400.446 153.645H400.321L392.088 139.425C391.922 139.093 391.714 138.968 391.465 139.051C391.298 139.051 391.215 139.259 391.215 139.675V190.443C391.215 191.025 391.049 191.482 390.716 191.815C390.383 192.147 389.926 192.314 389.344 192.314H369.636C369.053 192.314 368.596 192.147 368.264 191.815C367.931 191.482 367.765 191.025 367.765 190.443V106.869C367.765 106.287 367.931 105.829 368.264 105.497C368.596 105.164 369.053 104.998 369.636 104.998H389.095C390.176 104.998 390.924 105.455 391.34 106.37L400.071 122.336C400.238 122.586 400.404 122.752 400.57 122.835C400.82 122.835 400.986 122.669 401.069 122.336L409.551 106.37Z" fill="#F4EFE6"/>
<path d="M365.353 123.209C365.353 123.792 365.186 124.249 364.854 124.582C364.521 124.914 364.064 125.081 363.482 125.081H339.657C339.158 125.081 338.908 125.33 338.908 125.829V137.804C338.908 138.303 339.158 138.552 339.657 138.552H352.006C352.588 138.552 353.045 138.718 353.378 139.051C353.711 139.384 353.877 139.841 353.877 140.423V156.764C353.877 157.346 353.711 157.803 353.378 158.136C353.045 158.468 352.588 158.635 352.006 158.635H339.657C339.158 158.635 338.908 158.884 338.908 159.383V171.483C338.908 171.982 339.158 172.231 339.657 172.231H363.482C364.064 172.231 364.521 172.397 364.854 172.73C365.186 173.063 365.353 173.52 365.353 174.102V190.443C365.353 191.025 365.186 191.482 364.854 191.815C364.521 192.147 364.064 192.314 363.482 192.314H317.329C316.747 192.314 316.289 192.147 315.957 191.815C315.624 191.482 315.458 191.025 315.458 190.443V106.869C315.458 106.287 315.624 105.829 315.957 105.497C316.289 105.164 316.747 104.998 317.329 104.998H363.482C364.064 104.998 364.521 105.164 364.854 105.497C365.186 105.829 365.353 106.287 365.353 106.869V123.209Z" fill="#F4EFE6"/>
<path d="M290.855 192.314C289.774 192.314 289.109 191.773 288.86 190.692L281.251 159.383C281.084 158.967 280.918 158.759 280.752 158.759C280.419 158.759 280.253 159.009 280.253 159.508V190.443C280.253 191.025 280.087 191.482 279.754 191.815C279.421 192.147 278.964 192.314 278.382 192.314H258.673C258.091 192.314 257.634 192.147 257.301 191.815C256.969 191.482 256.802 191.025 256.802 190.443V106.869C256.802 106.287 256.969 105.829 257.301 105.497C257.634 105.164 258.091 104.998 258.673 104.998H286.739C291.729 104.998 296.136 106.204 299.961 108.615C303.87 110.944 306.905 114.228 309.067 118.469C311.229 122.627 312.31 127.409 312.31 132.814C312.31 137.388 311.52 141.504 309.94 145.163C308.36 148.739 306.073 151.649 303.08 153.895C302.747 154.144 302.622 154.477 302.705 154.893L312.809 190.193C312.892 190.359 312.934 190.567 312.934 190.817C312.934 191.815 312.352 192.314 311.188 192.314H290.855ZM281.001 125.081C280.502 125.081 280.253 125.33 280.253 125.829V140.174C280.253 140.673 280.502 140.922 281.001 140.922H282.623C284.452 140.922 285.949 140.257 287.113 138.926C288.278 137.513 288.86 135.558 288.86 133.064C288.86 130.486 288.278 128.532 287.113 127.201C286.032 125.787 284.535 125.081 282.623 125.081H281.001Z" fill="#F4EFE6"/>
<path d="M228.93 104.998C233.92 104.998 238.327 106.204 242.153 108.615C246.061 110.944 249.096 114.228 251.258 118.469C253.42 122.711 254.502 127.575 254.502 133.064C254.502 138.386 253.462 143.084 251.383 147.159C249.387 151.234 246.56 154.394 242.901 156.639C239.242 158.801 235.001 159.882 230.178 159.882H223.193C222.694 159.882 222.444 160.132 222.444 160.631V190.443C222.444 191.025 222.278 191.482 221.945 191.815C221.613 192.147 221.155 192.314 220.573 192.314H200.865C200.283 192.314 199.825 192.147 199.493 191.815C199.16 191.482 198.994 191.025 198.994 190.443V106.869C198.994 106.287 199.16 105.829 199.493 105.497C199.825 105.164 200.283 104.998 200.865 104.998H228.93ZM224.814 141.795C226.727 141.795 228.224 141.13 229.305 139.799C230.469 138.386 231.051 136.307 231.051 133.563C231.051 130.818 230.469 128.739 229.305 127.326C228.224 125.829 226.727 125.081 224.814 125.081H223.193C222.694 125.081 222.444 125.33 222.444 125.829V141.047C222.444 141.546 222.694 141.795 223.193 141.795H224.814Z" fill="#F4EFE6"/>
<path d="M571.916 222.553C571.916 222.764 571.811 222.869 571.6 222.869H564.257C564.173 222.869 564.131 222.911 564.131 222.996V230.844C564.131 230.929 564.173 230.971 564.257 230.971H568.878C569.089 230.971 569.195 231.076 569.195 231.287V232.648C569.195 232.859 569.089 232.965 568.878 232.965H564.257C564.173 232.965 564.131 233.007 564.131 233.091V240.972C564.131 241.056 564.173 241.098 564.257 241.098H571.6C571.811 241.098 571.916 241.204 571.916 241.415V242.744C571.916 242.955 571.811 243.06 571.6 243.06H562.2C561.989 243.06 561.884 242.955 561.884 242.744V221.223C561.884 221.012 561.989 220.907 562.2 220.907H571.6C571.811 220.907 571.916 221.012 571.916 221.223V222.553Z" fill="#F4EFE6"/>
<path d="M543.942 243.314C542.318 243.314 541.009 242.755 540.018 241.636C539.026 240.518 538.53 239.041 538.53 237.206V221.223C538.53 221.012 538.636 220.907 538.847 220.907H540.461C540.672 220.907 540.777 221.012 540.777 221.223V237.459C540.777 238.619 541.062 239.558 541.632 240.275C542.223 240.993 542.993 241.351 543.942 241.351C544.913 241.351 545.693 240.993 546.284 240.275C546.875 239.558 547.17 238.619 547.17 237.459V221.223C547.17 221.012 547.276 220.907 547.487 220.907H549.101C549.312 220.907 549.417 221.012 549.417 221.223V237.206C549.417 239.041 548.911 240.518 547.898 241.636C546.906 242.755 545.588 243.314 543.942 243.314Z" fill="#F4EFE6"/>
<path d="M520.739 243.314C519.114 243.314 517.816 242.839 516.846 241.89C515.875 240.919 515.39 239.632 515.39 238.028V225.939C515.39 224.335 515.875 223.059 516.846 222.109C517.816 221.139 519.114 220.654 520.739 220.654C522.363 220.654 523.661 221.139 524.631 222.109C525.623 223.08 526.119 224.367 526.119 225.971V227.331C526.119 227.542 526.013 227.648 525.802 227.648H524.188C523.977 227.648 523.872 227.542 523.872 227.331V225.907C523.872 224.916 523.587 224.124 523.017 223.534C522.448 222.922 521.688 222.616 520.739 222.616C519.81 222.616 519.051 222.922 518.46 223.534C517.89 224.146 517.606 224.937 517.606 225.907V238.06C517.606 239.031 517.89 239.822 518.46 240.434C519.051 241.046 519.81 241.351 520.739 241.351C521.688 241.351 522.448 241.056 523.017 240.465C523.587 239.853 523.872 239.052 523.872 238.06V234.009C523.872 233.925 523.83 233.883 523.745 233.883H521.023C520.812 233.883 520.707 233.777 520.707 233.566V232.237C520.707 232.026 520.812 231.92 521.023 231.92H525.802C526.013 231.92 526.119 232.026 526.119 232.237V238.028C526.119 239.632 525.623 240.919 524.631 241.89C523.661 242.839 522.363 243.314 520.739 243.314Z" fill="#F4EFE6"/>
<path d="M503.066 243.06C502.876 243.06 502.76 242.966 502.718 242.776L501.927 238.851C501.927 238.809 501.906 238.777 501.863 238.756C501.842 238.735 501.811 238.725 501.768 238.725H496.04C495.998 238.725 495.956 238.735 495.913 238.756C495.892 238.777 495.882 238.809 495.882 238.851L495.091 242.776C495.07 242.966 494.953 243.06 494.743 243.06H493.128C493.023 243.06 492.939 243.029 492.875 242.966C492.833 242.902 492.823 242.818 492.844 242.712L497.591 221.192C497.633 221.002 497.749 220.907 497.939 220.907H499.838C500.049 220.907 500.165 221.002 500.186 221.192L504.996 242.712V242.776C504.996 242.966 504.902 243.06 504.712 243.06H503.066ZM496.293 236.763C496.293 236.847 496.325 236.889 496.388 236.889H501.389C501.452 236.889 501.484 236.847 501.484 236.763L498.952 224.325C498.931 224.262 498.91 224.23 498.888 224.23C498.867 224.23 498.846 224.262 498.825 224.325L496.293 236.763Z" fill="#F4EFE6"/>
<path d="M481.858 222.553C481.858 222.764 481.752 222.869 481.541 222.869H474.199C474.115 222.869 474.072 222.911 474.072 222.996V230.844C474.072 230.929 474.115 230.971 474.199 230.971H478.82C479.031 230.971 479.136 231.076 479.136 231.287V232.648C479.136 232.859 479.031 232.965 478.82 232.965H474.199C474.115 232.965 474.072 233.007 474.072 233.091V240.972C474.072 241.056 474.115 241.098 474.199 241.098H481.541C481.752 241.098 481.858 241.204 481.858 241.415V242.744C481.858 242.955 481.752 243.06 481.541 243.06H472.142C471.931 243.06 471.825 242.955 471.825 242.744V221.223C471.825 221.012 471.931 220.907 472.142 220.907H481.541C481.752 220.907 481.858 221.012 481.858 221.223V222.553Z" fill="#F4EFE6"/>
<path d="M451.049 243.06C450.838 243.06 450.732 242.955 450.732 242.744V221.223C450.732 221.012 450.838 220.907 451.049 220.907H452.663C452.874 220.907 452.979 221.012 452.979 221.223V240.972C452.979 241.056 453.022 241.098 453.106 241.098H460.353C460.564 241.098 460.67 241.204 460.67 241.415V242.744C460.67 242.955 460.564 243.06 460.353 243.06H451.049Z" fill="#F4EFE6"/>
<path d="M422.137 243.06C421.947 243.06 421.82 242.976 421.757 242.807L418.529 233.028C418.508 232.965 418.466 232.933 418.402 232.933H415.649C415.564 232.933 415.522 232.975 415.522 233.06V242.744C415.522 242.955 415.417 243.06 415.206 243.06H413.592C413.381 243.06 413.275 242.955 413.275 242.744V221.223C413.275 221.012 413.381 220.907 413.592 220.907H418.814C420.354 220.907 421.599 221.477 422.548 222.616C423.498 223.734 423.972 225.2 423.972 227.015C423.972 228.386 423.677 229.568 423.086 230.56C422.495 231.551 421.694 232.247 420.681 232.648C420.597 232.669 420.565 232.722 420.586 232.807L424.036 242.712L424.067 242.839C424.067 242.987 423.972 243.06 423.782 243.06H422.137ZM415.649 222.869C415.564 222.869 415.522 222.911 415.522 222.996V231.003C415.522 231.087 415.564 231.129 415.649 231.129H418.497C419.468 231.129 420.248 230.76 420.839 230.021C421.43 229.262 421.725 228.26 421.725 227.015C421.725 225.77 421.43 224.768 420.839 224.008C420.248 223.249 419.468 222.869 418.497 222.869H415.649Z" fill="#F4EFE6"/>
<path d="M401.195 222.553C401.195 222.764 401.089 222.869 400.878 222.869H393.536C393.452 222.869 393.409 222.911 393.409 222.996V230.844C393.409 230.929 393.452 230.971 393.536 230.971H398.157C398.368 230.971 398.473 231.076 398.473 231.287V232.648C398.473 232.859 398.368 232.965 398.157 232.965H393.536C393.452 232.965 393.409 233.007 393.409 233.091V240.972C393.409 241.056 393.452 241.098 393.536 241.098H400.878C401.089 241.098 401.195 241.204 401.195 241.415V242.744C401.195 242.955 401.089 243.06 400.878 243.06H391.479C391.268 243.06 391.162 242.955 391.162 242.744V221.223C391.162 221.012 391.268 220.907 391.479 220.907H400.878C401.089 220.907 401.195 221.012 401.195 221.223V222.553Z" fill="#F4EFE6"/>
<path d="M373.335 243.314C371.711 243.314 370.403 242.818 369.411 241.826C368.441 240.835 367.955 239.505 367.955 237.839V226.097C367.955 224.451 368.441 223.133 369.411 222.141C370.403 221.149 371.711 220.654 373.335 220.654C374.981 220.654 376.289 221.149 377.26 222.141C378.251 223.112 378.747 224.43 378.747 226.097V226.635C378.747 226.846 378.642 226.952 378.431 226.952L376.785 227.047C376.574 227.047 376.469 226.941 376.469 226.73V225.939C376.469 224.947 376.184 224.146 375.614 223.534C375.044 222.922 374.285 222.616 373.335 222.616C372.407 222.616 371.648 222.922 371.057 223.534C370.487 224.146 370.202 224.947 370.202 225.939V238.028C370.202 239.02 370.487 239.822 371.057 240.434C371.648 241.046 372.407 241.351 373.335 241.351C374.285 241.351 375.044 241.046 375.614 240.434C376.184 239.822 376.469 239.02 376.469 238.028V237.237C376.469 237.026 376.574 236.921 376.785 236.921L378.431 237.016C378.642 237.016 378.747 237.121 378.747 237.332V237.839C378.747 239.505 378.251 240.835 377.26 241.826C376.268 242.818 374.96 243.314 373.335 243.314Z" fill="#F4EFE6"/>
<path d="M350.666 243.314C349.042 243.314 347.734 242.818 346.742 241.826C345.771 240.835 345.286 239.505 345.286 237.839V226.097C345.286 224.451 345.771 223.133 346.742 222.141C347.734 221.149 349.042 220.654 350.666 220.654C352.312 220.654 353.62 221.149 354.591 222.141C355.582 223.112 356.078 224.43 356.078 226.097V226.635C356.078 226.846 355.973 226.952 355.762 226.952L354.116 227.047C353.905 227.047 353.799 226.941 353.799 226.73V225.939C353.799 224.947 353.515 224.146 352.945 223.534C352.375 222.922 351.616 222.616 350.666 222.616C349.738 222.616 348.978 222.922 348.388 223.534C347.818 224.146 347.533 224.947 347.533 225.939V238.028C347.533 239.02 347.818 239.822 348.388 240.434C348.978 241.046 349.738 241.351 350.666 241.351C351.616 241.351 352.375 241.046 352.945 240.434C353.515 239.822 353.799 239.02 353.799 238.028V237.237C353.799 237.026 353.905 236.921 354.116 236.921L355.762 237.016C355.973 237.016 356.078 237.121 356.078 237.332V237.839C356.078 239.505 355.582 240.835 354.591 241.826C353.599 242.818 352.291 243.314 350.666 243.314Z" fill="#F4EFE6"/>
<path d="M327.751 243.314C326.127 243.314 324.808 242.807 323.795 241.795C322.804 240.782 322.308 239.442 322.308 237.775V226.192C322.308 224.525 322.804 223.186 323.795 222.173C324.808 221.16 326.127 220.654 327.751 220.654C329.397 220.654 330.726 221.16 331.739 222.173C332.752 223.186 333.258 224.525 333.258 226.192V237.775C333.258 239.421 332.752 240.761 331.739 241.795C330.726 242.807 329.397 243.314 327.751 243.314ZM327.751 241.351C328.722 241.351 329.503 241.035 330.093 240.402C330.705 239.748 331.011 238.915 331.011 237.902V226.097C331.011 225.063 330.705 224.23 330.093 223.597C329.503 222.943 328.722 222.616 327.751 222.616C326.802 222.616 326.032 222.943 325.441 223.597C324.85 224.23 324.555 225.063 324.555 226.097V237.902C324.555 238.915 324.85 239.748 325.441 240.402C326.032 241.035 326.802 241.351 327.751 241.351Z" fill="#F4EFE6"/>
<path d="M305.439 243.314C303.878 243.314 302.612 242.797 301.641 241.763C300.671 240.729 300.185 239.379 300.185 237.712V236.984C300.185 236.773 300.291 236.668 300.502 236.668H302.053C302.264 236.668 302.369 236.773 302.369 236.984V237.617C302.369 238.735 302.654 239.642 303.224 240.339C303.793 241.014 304.532 241.351 305.439 241.351C306.325 241.351 307.064 241.024 307.654 240.37C308.245 239.716 308.541 238.851 308.541 237.775C308.541 237.058 308.393 236.446 308.097 235.94C307.823 235.412 307.454 234.959 306.99 234.579C306.547 234.178 305.798 233.577 304.743 232.775C303.688 231.994 302.854 231.33 302.243 230.781C301.631 230.211 301.124 229.536 300.723 228.756C300.344 227.975 300.154 227.057 300.154 226.002C300.154 224.356 300.629 223.059 301.578 222.109C302.527 221.139 303.762 220.654 305.281 220.654C306.884 220.654 308.161 221.181 309.11 222.236C310.081 223.27 310.566 224.652 310.566 226.382V227.173C310.566 227.384 310.461 227.49 310.25 227.49H308.667C308.456 227.49 308.351 227.384 308.351 227.173V226.35C308.351 225.232 308.066 224.335 307.496 223.66C306.948 222.964 306.209 222.616 305.281 222.616C304.437 222.616 303.741 222.922 303.192 223.534C302.643 224.124 302.369 224.968 302.369 226.065C302.369 226.72 302.485 227.3 302.717 227.806C302.97 228.291 303.34 228.756 303.825 229.199C304.31 229.642 305.028 230.222 305.977 230.939C307.243 231.868 308.182 232.627 308.794 233.218C309.427 233.788 309.912 234.421 310.25 235.117C310.587 235.792 310.756 236.615 310.756 237.585C310.756 239.315 310.26 240.708 309.268 241.763C308.277 242.797 307 243.314 305.439 243.314Z" fill="#F4EFE6"/>
<rect x="196" y="228.028" width="80.7025" height="4.74721" fill="#CEA538"/>
<path d="M2.2002 8.64668C20.6607 8.35129 39.8029 8.63369 58.3438 8.63496V8.63594L155.272 8.67989C155.062 17.9184 155.24 28.274 155.293 37.6955L155.307 41.9914L155.305 82.3195L155.307 106.525C155.304 112.089 155.478 118.006 154.985 123.257C152.578 148.957 141.649 169.609 123.023 186.088C115.814 191.961 108.118 197.66 100.356 203.379C93.0835 208.738 85.7479 214.116 78.7686 219.629C76.7911 218.033 74.3434 216.235 72.21 214.668L69.7549 212.854L47.4355 196.023C40.3807 190.701 34.3455 186.486 28.3213 180.404L27.7383 179.81C16.9843 168.525 9.23539 154.485 5.25977 139.088L4.88672 137.594C1.69707 124.194 2.23187 115.024 2.23438 101.01L2.24219 72.9973V72.9953L2.2002 8.64668Z" stroke="#CEA538" stroke-width="4.39627"/>
<path d="M82.9551 69.8678V41.9173L84.8125 40.0599H92.3777L94.235 41.9173V49.1201H90.7469V43.8652L90.4298 43.5481H86.7151L86.398 43.8652V67.9652L86.7151 68.2823H90.4298L90.7469 67.9652V62.7103H94.235V69.9131L92.3777 71.7704H84.8125L82.9551 69.8678Z" fill="#CEA538"/>
<path d="M74.9409 40.0604H78.429V71.7709H74.9409V60.2192L67.3757 45.5418V71.7709H63.8875V40.0604H68.327L74.9409 52.9711V40.0604Z" fill="#CEA538"/>
<path d="M81.6115 162.891V131.612L83.69 129.533H92.1562L94.2347 131.612V139.672H90.3312V133.792L89.9763 133.437H85.8192L85.4644 133.792V160.762L85.8192 161.117H89.9763L90.3312 160.762V154.881H94.2347V162.942L92.1562 165.02H83.69L81.6115 162.891Z" fill="#CEA538"/>
<path d="M63.8881 162.943V154.883H67.7917V160.763L68.1465 161.118H72.3036L72.6584 160.763V149.61L72.3036 149.255H66.0173L63.9388 147.177V131.664L66.0173 129.585H74.4835L76.562 131.664V139.725H72.6584V133.844L72.3036 133.489H68.1465L67.7917 133.844V144.997L68.1465 145.352H74.4328L76.5113 147.43V162.943L74.4328 165.022H65.9666L63.8881 162.943Z" fill="#CEA538"/>
<path d="M2.93097 109.28L169.419 79.9717" stroke="#CEA538" stroke-width="4.39627" stroke-miterlimit="10"/>
<path d="M108.331 108.547L93.8915 94.1077" stroke="#CEA538" stroke-width="4.39627" stroke-miterlimit="10"/>
<path d="M97.7705 108.547L84.8843 95.658" stroke="#CEA538" stroke-width="4.39627" stroke-miterlimit="10"/>
<path d="M87.2134 108.547L75.9698 97.3036" stroke="#CEA538" stroke-width="4.39627" stroke-miterlimit="10"/>
<path d="M76.6528 108.547L66.9247 98.8191" stroke="#CEA538" stroke-width="4.39627" stroke-miterlimit="10"/>
<path d="M66.0953 108.547L57.9461 100.401" stroke="#CEA538" stroke-width="4.39627" stroke-miterlimit="10"/>
<path d="M55.5348 108.547L49.0917 102.104" stroke="#CEA538" stroke-width="4.39627" stroke-miterlimit="10"/>
</svg>
