<svg width="640" height="235" viewBox="0 0 640 235" fill="none" xmlns="http://www.w3.org/2000/svg">
<path d="M618.062 88.3137C616.814 88.3137 616.149 87.7316 616.066 86.5674L614.694 77.2121C614.694 77.0458 614.611 76.8795 614.444 76.7132C614.278 76.5468 614.07 76.4637 613.821 76.4637H602.844C602.594 76.4637 602.386 76.5468 602.22 76.7132C602.054 76.8795 601.971 77.0458 601.971 77.2121L600.723 86.5674C600.64 87.7316 599.975 88.3137 598.727 88.3137H579.144C577.813 88.3137 577.273 87.6484 577.522 86.3179L595.235 2.61947C595.484 1.53842 596.191 0.997887 597.355 0.997887H620.057C621.222 0.997887 621.929 1.53842 622.178 2.61947L639.891 86.3179V86.8168C639.891 87.8147 639.309 88.3137 638.144 88.3137H618.062ZM604.715 57.7532C604.715 58.2521 604.923 58.5016 605.339 58.5016H611.201C611.783 58.5016 611.991 58.2521 611.825 57.7532L608.457 35.3005C608.374 34.9679 608.249 34.8016 608.083 34.8016C607.916 34.8016 607.792 34.9679 607.709 35.3005L604.715 57.7532Z" fill="#F4EFE6"/>
<path d="M551.537 2.86894C551.537 2.28684 551.703 1.82947 552.036 1.49683C552.369 1.1642 552.826 0.997887 553.408 0.997887H572.867C573.449 0.997887 573.906 1.1642 574.239 1.49683C574.572 1.82947 574.738 2.28684 574.738 2.86894V86.4426C574.738 87.0247 574.572 87.4821 574.239 87.8147C573.906 88.1474 573.449 88.3137 572.867 88.3137H550.664C549.583 88.3137 548.917 87.7731 548.668 86.6921L539.188 48.8968C539.105 48.6474 538.939 48.5226 538.689 48.5226C538.44 48.5226 538.315 48.6889 538.315 49.0216L538.564 86.4426C538.564 87.0247 538.398 87.4821 538.065 87.8147C537.733 88.1474 537.275 88.3137 536.693 88.3137H517.234C516.652 88.3137 516.195 88.1474 515.862 87.8147C515.53 87.4821 515.363 87.0247 515.363 86.4426V2.86894C515.363 2.28684 515.53 1.82947 515.862 1.49683C516.195 1.1642 516.652 0.997887 517.234 0.997887H539.188C540.269 0.997887 540.934 1.53842 541.184 2.61947L550.789 40.5395C550.872 40.8721 551.038 41.0384 551.287 41.0384C551.537 41.0384 551.662 40.8721 551.662 40.5395L551.537 2.86894Z" fill="#F4EFE6"/>
<path d="M489.763 88.3137C489.181 88.3137 488.724 88.1474 488.391 87.8147C488.058 87.4821 487.892 87.0247 487.892 86.4426V2.86894C487.892 2.28684 488.058 1.82947 488.391 1.49683C488.724 1.1642 489.181 0.997887 489.763 0.997887H509.471C510.054 0.997887 510.511 1.1642 510.844 1.49683C511.176 1.82947 511.343 2.28684 511.343 2.86894V86.4426C511.343 87.0247 511.176 87.4821 510.844 87.8147C510.511 88.1474 510.054 88.3137 509.471 88.3137H489.763Z" fill="#F4EFE6"/>
<path d="M436.589 88.3137C436.007 88.3137 435.55 88.1474 435.217 87.8147C434.884 87.4821 434.718 87.0247 434.718 86.4426V2.86894C434.718 2.28684 434.884 1.82947 435.217 1.49683C435.55 1.1642 436.007 0.997887 436.589 0.997887H456.298C456.88 0.997887 457.337 1.1642 457.67 1.49683C458.002 1.82947 458.169 2.28684 458.169 2.86894V67.4826C458.169 67.9816 458.418 68.231 458.917 68.231H483.241C483.823 68.231 484.28 68.3974 484.613 68.73C484.945 69.0626 485.112 69.52 485.112 70.1021V86.4426C485.112 87.0247 484.945 87.4821 484.613 87.8147C484.28 88.1474 483.823 88.3137 483.241 88.3137H436.589Z" fill="#F4EFE6"/>
<path d="M403.737 89.3116C395.338 89.3116 388.602 86.9 383.529 82.0768C378.54 77.2537 376.045 70.7674 376.045 62.6179V26.6937C376.045 18.5442 378.54 12.0579 383.529 7.23473C388.602 2.41158 395.338 0 403.737 0C412.135 0 418.83 2.41158 423.819 7.23473C428.892 12.0579 431.428 18.5442 431.428 26.6937V62.6179C431.428 70.7674 428.892 77.2537 423.819 82.0768C418.83 86.9 412.135 89.3116 403.737 89.3116ZM403.737 69.2289C405.067 69.2289 406.107 68.73 406.855 67.7321C407.603 66.7342 407.978 65.3621 407.978 63.6158V25.6958C407.978 23.9495 407.603 22.5774 406.855 21.5795C406.107 20.5816 405.067 20.0826 403.737 20.0826C402.406 20.0826 401.367 20.5816 400.618 21.5795C399.87 22.5774 399.495 23.9495 399.495 25.6958V63.6158C399.495 65.3621 399.87 66.7342 400.618 67.7321C401.367 68.73 402.406 69.2289 403.737 69.2289Z" fill="#F4EFE6"/>
<path d="M352.191 88.3137C351.11 88.3137 350.445 87.7731 350.195 86.6921L342.586 55.3831C342.42 54.9674 342.254 54.7595 342.087 54.7595C341.755 54.7595 341.588 55.0089 341.588 55.5079V86.4426C341.588 87.0247 341.422 87.4821 341.089 87.8147C340.757 88.1474 340.299 88.3137 339.717 88.3137H320.009C319.427 88.3137 318.969 88.1474 318.637 87.8147C318.304 87.4821 318.138 87.0247 318.138 86.4426V2.86894C318.138 2.28684 318.304 1.82947 318.637 1.49683C318.969 1.1642 319.427 0.997887 320.009 0.997887H348.075C353.064 0.997887 357.472 2.20368 361.297 4.61526C365.205 6.94368 368.24 10.2284 370.403 14.4695C372.565 18.6274 373.646 23.4089 373.646 28.8142C373.646 33.3879 372.856 37.5042 371.276 41.1631C369.696 44.7389 367.409 47.6495 364.415 49.8947C364.083 50.1442 363.958 50.4768 364.041 50.8926L374.145 86.1931C374.228 86.3595 374.269 86.5674 374.269 86.8168C374.269 87.8147 373.687 88.3137 372.523 88.3137H352.191ZM342.337 21.0805C341.838 21.0805 341.588 21.33 341.588 21.8289V36.1737C341.588 36.6726 341.838 36.9221 342.337 36.9221H343.958C345.788 36.9221 347.285 36.2568 348.449 34.9263C349.613 33.5126 350.195 31.5584 350.195 29.0637C350.195 26.4858 349.613 24.5316 348.449 23.201C347.368 21.7874 345.871 21.0805 343.958 21.0805H342.337Z" fill="#F4EFE6"/>
<path d="M293.658 88.3137C292.411 88.3137 291.746 87.7316 291.662 86.5674L290.29 77.2121C290.29 77.0458 290.207 76.8795 290.041 76.7132C289.875 76.5468 289.667 76.4637 289.417 76.4637H278.44C278.191 76.4637 277.983 76.5468 277.817 76.7132C277.65 76.8795 277.567 77.0458 277.567 77.2121L276.32 86.5674C276.237 87.7316 275.571 88.3137 274.324 88.3137H254.74C253.41 88.3137 252.869 87.6484 253.119 86.3179L270.831 2.61947C271.081 1.53842 271.788 0.997887 272.952 0.997887H295.654C296.818 0.997887 297.525 1.53842 297.775 2.61947L315.487 86.3179V86.8168C315.487 87.8147 314.905 88.3137 313.741 88.3137H293.658ZM280.311 57.7532C280.311 58.2521 280.519 58.5016 280.935 58.5016H286.798C287.38 58.5016 287.588 58.2521 287.421 57.7532L284.053 35.3005C283.97 34.9679 283.846 34.8016 283.679 34.8016C283.513 34.8016 283.388 34.9679 283.305 35.3005L280.311 57.7532Z" fill="#F4EFE6"/>
<path d="M225.812 89.3116C217.579 89.3116 210.968 86.9 205.979 82.0768C200.989 77.2537 198.495 70.8089 198.495 62.7426V26.3195C198.495 18.2532 200.948 11.85 205.854 7.11C210.844 2.37 217.496 0 225.812 0C234.045 0 240.656 2.37 245.645 7.11C250.635 11.85 253.129 18.2532 253.129 26.3195V26.9432C253.129 27.5253 252.963 28.0242 252.631 28.44C252.298 28.7726 251.841 28.9389 251.258 28.9389L231.55 29.5626C230.303 29.5626 229.679 28.9805 229.679 27.8163V24.6979C229.679 23.2842 229.305 22.1616 228.556 21.33C227.891 20.4984 226.976 20.0826 225.812 20.0826C224.648 20.0826 223.692 20.4984 222.943 21.33C222.278 22.1616 221.945 23.2842 221.945 24.6979V64.7384C221.945 66.1521 222.278 67.2747 222.943 68.1063C223.692 68.8547 224.648 69.2289 225.812 69.2289C226.976 69.2289 227.891 68.8547 228.556 68.1063C229.305 67.2747 229.679 66.1521 229.679 64.7384V61.3705C229.679 60.2063 230.303 59.6242 231.55 59.6242L251.258 60.2479C251.841 60.2479 252.298 60.4558 252.631 60.8716C252.963 61.2042 253.129 61.6616 253.129 62.2437V62.7426C253.129 68.0647 251.965 72.7632 249.637 76.8379C247.392 80.8295 244.19 83.9063 240.032 86.0684C235.957 88.2305 231.217 89.3116 225.812 89.3116Z" fill="#F4EFE6"/>
<path d="M551 192.314C549.919 192.314 549.254 191.773 549.004 190.692L541.395 159.383C541.229 158.967 541.063 158.759 540.896 158.759C540.564 158.759 540.397 159.009 540.397 159.508V190.443C540.397 191.025 540.231 191.482 539.898 191.815C539.566 192.147 539.108 192.314 538.526 192.314H518.818C518.236 192.314 517.778 192.147 517.446 191.815C517.113 191.482 516.947 191.025 516.947 190.443V106.869C516.947 106.287 517.113 105.829 517.446 105.497C517.778 105.164 518.236 104.998 518.818 104.998H546.884C551.873 104.998 556.281 106.204 560.106 108.615C564.014 110.944 567.05 114.228 569.212 118.469C571.374 122.627 572.455 127.409 572.455 132.814C572.455 137.388 571.665 141.504 570.085 145.163C568.505 148.739 566.218 151.649 563.224 153.895C562.892 154.144 562.767 154.477 562.85 154.893L572.954 190.193C573.037 190.359 573.078 190.567 573.078 190.817C573.078 191.815 572.496 192.314 571.332 192.314H551ZM541.146 125.081C540.647 125.081 540.397 125.33 540.397 125.829V140.174C540.397 140.673 540.647 140.922 541.146 140.922H542.767C544.597 140.922 546.094 140.257 547.258 138.926C548.422 137.513 549.004 135.558 549.004 133.064C549.004 130.486 548.422 128.532 547.258 127.201C546.177 125.787 544.68 125.081 542.767 125.081H541.146Z" fill="#F4EFE6"/>
<path d="M513.911 123.209C513.911 123.792 513.745 124.249 513.412 124.582C513.08 124.914 512.622 125.081 512.04 125.081H488.216C487.717 125.081 487.467 125.33 487.467 125.829V137.804C487.467 138.303 487.717 138.552 488.216 138.552H500.564C501.147 138.552 501.604 138.718 501.937 139.051C502.269 139.384 502.436 139.841 502.436 140.423V156.764C502.436 157.346 502.269 157.803 501.937 158.136C501.604 158.468 501.147 158.635 500.564 158.635H488.216C487.717 158.635 487.467 158.884 487.467 159.383V171.483C487.467 171.982 487.717 172.231 488.216 172.231H512.04C512.622 172.231 513.08 172.397 513.412 172.73C513.745 173.063 513.911 173.52 513.911 174.102V190.443C513.911 191.025 513.745 191.482 513.412 191.815C513.08 192.147 512.622 192.314 512.04 192.314H465.888C465.305 192.314 464.848 192.147 464.516 191.815C464.183 191.482 464.017 191.025 464.017 190.443V106.869C464.017 106.287 464.183 105.829 464.516 105.497C464.848 105.164 465.305 104.998 465.888 104.998H512.04C512.622 104.998 513.08 105.164 513.412 105.497C513.745 105.829 513.911 106.287 513.911 106.869V123.209Z" fill="#F4EFE6"/>
<path d="M438.416 192.314C437.834 192.314 437.377 192.147 437.044 191.815C436.712 191.482 436.545 191.025 436.545 190.443V106.869C436.545 106.287 436.712 105.829 437.044 105.497C437.377 105.164 437.834 104.998 438.416 104.998H458.125C458.707 104.998 459.164 105.164 459.497 105.497C459.829 105.829 459.996 106.287 459.996 106.869V190.443C459.996 191.025 459.829 191.482 459.497 191.815C459.164 192.147 458.707 192.314 458.125 192.314H438.416Z" fill="#F4EFE6"/>
<path d="M409.551 106.37C410.05 105.455 410.799 104.998 411.797 104.998H431.256C431.838 104.998 432.295 105.164 432.628 105.497C432.96 105.829 433.127 106.287 433.127 106.869V190.443C433.127 191.025 432.96 191.482 432.628 191.815C432.295 192.147 431.838 192.314 431.256 192.314H411.547C410.965 192.314 410.508 192.147 410.175 191.815C409.842 191.482 409.676 191.025 409.676 190.443V139.675C409.676 139.342 409.551 139.134 409.302 139.051C409.136 138.968 408.969 139.093 408.803 139.425L401.693 151.4L400.446 153.645H400.321L392.088 139.425C391.922 139.093 391.714 138.968 391.465 139.051C391.298 139.051 391.215 139.259 391.215 139.675V190.443C391.215 191.025 391.049 191.482 390.716 191.815C390.384 192.147 389.926 192.314 389.344 192.314H369.636C369.054 192.314 368.596 192.147 368.264 191.815C367.931 191.482 367.765 191.025 367.765 190.443V106.869C367.765 106.287 367.931 105.829 368.264 105.497C368.596 105.164 369.054 104.998 369.636 104.998H389.095C390.176 104.998 390.924 105.455 391.34 106.37L400.071 122.336C400.238 122.586 400.404 122.752 400.57 122.835C400.82 122.835 400.986 122.669 401.069 122.336L409.551 106.37Z" fill="#F4EFE6"/>
<path d="M365.353 123.209C365.353 123.792 365.186 124.249 364.854 124.582C364.521 124.914 364.064 125.081 363.482 125.081H339.657C339.158 125.081 338.908 125.33 338.908 125.829V137.804C338.908 138.303 339.158 138.552 339.657 138.552H352.006C352.588 138.552 353.045 138.718 353.378 139.051C353.711 139.384 353.877 139.841 353.877 140.423V156.764C353.877 157.346 353.711 157.803 353.378 158.136C353.045 158.468 352.588 158.635 352.006 158.635H339.657C339.158 158.635 338.908 158.884 338.908 159.383V171.483C338.908 171.982 339.158 172.231 339.657 172.231H363.482C364.064 172.231 364.521 172.397 364.854 172.73C365.186 173.063 365.353 173.52 365.353 174.102V190.443C365.353 191.025 365.186 191.482 364.854 191.815C364.521 192.147 364.064 192.314 363.482 192.314H317.329C316.747 192.314 316.29 192.147 315.957 191.815C315.624 191.482 315.458 191.025 315.458 190.443V106.869C315.458 106.287 315.624 105.829 315.957 105.497C316.29 105.164 316.747 104.998 317.329 104.998H363.482C364.064 104.998 364.521 105.164 364.854 105.497C365.186 105.829 365.353 106.287 365.353 106.869V123.209Z" fill="#F4EFE6"/>
<path d="M290.856 192.314C289.774 192.314 289.109 191.773 288.86 190.692L281.251 159.383C281.084 158.967 280.918 158.759 280.752 158.759C280.419 158.759 280.253 159.009 280.253 159.508V190.443C280.253 191.025 280.087 191.482 279.754 191.815C279.421 192.147 278.964 192.314 278.382 192.314H258.673C258.091 192.314 257.634 192.147 257.301 191.815C256.969 191.482 256.802 191.025 256.802 190.443V106.869C256.802 106.287 256.969 105.829 257.301 105.497C257.634 105.164 258.091 104.998 258.673 104.998H286.739C291.729 104.998 296.136 106.204 299.961 108.615C303.87 110.944 306.905 114.228 309.067 118.469C311.229 122.627 312.31 127.409 312.31 132.814C312.31 137.388 311.52 141.504 309.94 145.163C308.36 148.739 306.073 151.649 303.08 153.895C302.747 154.144 302.622 154.477 302.706 154.893L312.809 190.193C312.892 190.359 312.934 190.567 312.934 190.817C312.934 191.815 312.352 192.314 311.188 192.314H290.856ZM281.001 125.081C280.502 125.081 280.253 125.33 280.253 125.829V140.174C280.253 140.673 280.502 140.922 281.001 140.922H282.623C284.452 140.922 285.949 140.257 287.113 138.926C288.278 137.513 288.86 135.558 288.86 133.064C288.86 130.486 288.278 128.532 287.113 127.201C286.032 125.787 284.536 125.081 282.623 125.081H281.001Z" fill="#F4EFE6"/>
<path d="M228.931 104.998C233.92 104.998 238.327 106.204 242.153 108.615C246.061 110.944 249.096 114.228 251.258 118.469C253.421 122.711 254.502 127.575 254.502 133.064C254.502 138.386 253.462 143.084 251.383 147.159C249.387 151.234 246.56 154.394 242.901 156.639C239.242 158.801 235.001 159.882 230.178 159.882H223.193C222.694 159.882 222.444 160.132 222.444 160.631V190.443C222.444 191.025 222.278 191.482 221.945 191.815C221.613 192.147 221.155 192.314 220.573 192.314H200.865C200.283 192.314 199.825 192.147 199.493 191.815C199.16 191.482 198.994 191.025 198.994 190.443V106.869C198.994 106.287 199.16 105.829 199.493 105.497C199.825 105.164 200.283 104.998 200.865 104.998H228.931ZM224.814 141.795C226.727 141.795 228.224 141.13 229.305 139.799C230.469 138.386 231.051 136.307 231.051 133.563C231.051 130.818 230.469 128.739 229.305 127.326C228.224 125.829 226.727 125.081 224.814 125.081H223.193C222.694 125.081 222.444 125.33 222.444 125.829V141.047C222.444 141.546 222.694 141.795 223.193 141.795H224.814Z" fill="#F4EFE6"/>
<path d="M433.56 221.854C433.56 221.987 433.494 222.054 433.36 222.054H428.72C428.667 222.054 428.64 222.08 428.64 222.134V227.094C428.64 227.147 428.667 227.174 428.72 227.174H431.64C431.774 227.174 431.84 227.24 431.84 227.374V228.234C431.84 228.367 431.774 228.434 431.64 228.434H428.72C428.667 228.434 428.64 228.46 428.64 228.514V233.494C428.64 233.547 428.667 233.574 428.72 233.574H433.36C433.494 233.574 433.56 233.64 433.56 233.774V234.614C433.56 234.747 433.494 234.814 433.36 234.814H427.42C427.287 234.814 427.22 234.747 427.22 234.614V221.014C427.22 220.88 427.287 220.814 427.42 220.814H433.36C433.494 220.814 433.56 220.88 433.56 221.014V221.854Z" fill="#F4EFE6"/>
<path d="M415.882 234.974C414.856 234.974 414.029 234.62 413.402 233.914C412.776 233.207 412.462 232.274 412.462 231.114V221.014C412.462 220.88 412.529 220.814 412.662 220.814H413.682C413.816 220.814 413.882 220.88 413.882 221.014V231.274C413.882 232.007 414.062 232.6 414.422 233.054C414.796 233.507 415.282 233.734 415.882 233.734C416.496 233.734 416.989 233.507 417.362 233.054C417.736 232.6 417.922 232.007 417.922 231.274V221.014C417.922 220.88 417.989 220.814 418.122 220.814H419.142C419.276 220.814 419.342 220.88 419.342 221.014V231.114C419.342 232.274 419.022 233.207 418.382 233.914C417.756 234.62 416.922 234.974 415.882 234.974Z" fill="#F4EFE6"/>
<path d="M401.219 234.974C400.192 234.974 399.372 234.674 398.759 234.074C398.145 233.46 397.839 232.647 397.839 231.634V223.994C397.839 222.98 398.145 222.174 398.759 221.574C399.372 220.96 400.192 220.654 401.219 220.654C402.245 220.654 403.065 220.96 403.679 221.574C404.305 222.187 404.619 223 404.619 224.014V224.874C404.619 225.007 404.552 225.074 404.419 225.074H403.399C403.265 225.074 403.199 225.007 403.199 224.874V223.974C403.199 223.347 403.019 222.847 402.659 222.474C402.299 222.087 401.819 221.894 401.219 221.894C400.632 221.894 400.152 222.087 399.779 222.474C399.419 222.86 399.239 223.36 399.239 223.974V231.654C399.239 232.267 399.419 232.767 399.779 233.154C400.152 233.54 400.632 233.734 401.219 233.734C401.819 233.734 402.299 233.547 402.659 233.174C403.019 232.787 403.199 232.28 403.199 231.654V229.094C403.199 229.04 403.172 229.014 403.119 229.014H401.399C401.265 229.014 401.199 228.947 401.199 228.814V227.974C401.199 227.84 401.265 227.774 401.399 227.774H404.419C404.552 227.774 404.619 227.84 404.619 227.974V231.634C404.619 232.647 404.305 233.46 403.679 234.074C403.065 234.674 402.245 234.974 401.219 234.974Z" fill="#F4EFE6"/>
<path d="M390.05 234.814C389.93 234.814 389.857 234.754 389.83 234.634L389.33 232.154C389.33 232.127 389.317 232.107 389.29 232.094C389.277 232.08 389.257 232.074 389.23 232.074H385.61C385.584 232.074 385.557 232.08 385.53 232.094C385.517 232.107 385.51 232.127 385.51 232.154L385.01 234.634C384.997 234.754 384.924 234.814 384.79 234.814H383.77C383.704 234.814 383.65 234.794 383.61 234.754C383.584 234.714 383.577 234.66 383.59 234.594L386.59 220.994C386.617 220.874 386.69 220.814 386.81 220.814H388.01C388.144 220.814 388.217 220.874 388.23 220.994L391.27 234.594V234.634C391.27 234.754 391.21 234.814 391.09 234.814H390.05ZM385.77 230.834C385.77 230.887 385.79 230.914 385.83 230.914H388.99C389.03 230.914 389.05 230.887 389.05 230.834L387.45 222.974C387.437 222.934 387.424 222.914 387.41 222.914C387.397 222.914 387.384 222.934 387.37 222.974L385.77 230.834Z" fill="#F4EFE6"/>
<path d="M376.648 221.854C376.648 221.987 376.581 222.054 376.448 222.054H371.808C371.755 222.054 371.728 222.08 371.728 222.134V227.094C371.728 227.147 371.755 227.174 371.808 227.174H374.728C374.861 227.174 374.928 227.24 374.928 227.374V228.234C374.928 228.367 374.861 228.434 374.728 228.434H371.808C371.755 228.434 371.728 228.46 371.728 228.514V233.494C371.728 233.547 371.755 233.574 371.808 233.574H376.448C376.581 233.574 376.648 233.64 376.648 233.774V234.614C376.648 234.747 376.581 234.814 376.448 234.814H370.508C370.375 234.814 370.308 234.747 370.308 234.614V221.014C370.308 220.88 370.375 220.814 370.508 220.814H376.448C376.581 220.814 376.648 220.88 376.648 221.014V221.854Z" fill="#F4EFE6"/>
<path d="M357.178 234.814C357.045 234.814 356.978 234.747 356.978 234.614V221.014C356.978 220.88 357.045 220.814 357.178 220.814H358.198C358.332 220.814 358.398 220.88 358.398 221.014V233.494C358.398 233.547 358.425 233.574 358.478 233.574H363.058C363.192 233.574 363.258 233.64 363.258 233.774V234.614C363.258 234.747 363.192 234.814 363.058 234.814H357.178Z" fill="#F4EFE6"/>
<path d="M338.907 234.814C338.787 234.814 338.707 234.76 338.667 234.654L336.627 228.474C336.614 228.434 336.587 228.414 336.547 228.414H334.807C334.754 228.414 334.727 228.44 334.727 228.494V234.614C334.727 234.747 334.661 234.814 334.527 234.814H333.507C333.374 234.814 333.307 234.747 333.307 234.614V221.014C333.307 220.88 333.374 220.814 333.507 220.814H336.807C337.781 220.814 338.567 221.174 339.167 221.894C339.767 222.6 340.067 223.527 340.067 224.674C340.067 225.54 339.881 226.287 339.507 226.914C339.134 227.54 338.627 227.98 337.987 228.234C337.934 228.247 337.914 228.28 337.927 228.334L340.107 234.594L340.127 234.674C340.127 234.767 340.067 234.814 339.947 234.814H338.907ZM334.807 222.054C334.754 222.054 334.727 222.08 334.727 222.134V227.194C334.727 227.247 334.754 227.274 334.807 227.274H336.607C337.221 227.274 337.714 227.04 338.087 226.574C338.461 226.094 338.647 225.46 338.647 224.674C338.647 223.887 338.461 223.254 338.087 222.774C337.714 222.294 337.221 222.054 336.607 222.054H334.807Z" fill="#F4EFE6"/>
<path d="M325.673 221.854C325.673 221.987 325.606 222.054 325.473 222.054H320.833C320.78 222.054 320.753 222.08 320.753 222.134V227.094C320.753 227.147 320.78 227.174 320.833 227.174H323.753C323.886 227.174 323.953 227.24 323.953 227.374V228.234C323.953 228.367 323.886 228.434 323.753 228.434H320.833C320.78 228.434 320.753 228.46 320.753 228.514V233.494C320.753 233.547 320.78 233.574 320.833 233.574H325.473C325.606 233.574 325.673 233.64 325.673 233.774V234.614C325.673 234.747 325.606 234.814 325.473 234.814H319.533C319.4 234.814 319.333 234.747 319.333 234.614V221.014C319.333 220.88 319.4 220.814 319.533 220.814H325.473C325.606 220.814 325.673 220.88 325.673 221.014V221.854Z" fill="#F4EFE6"/>
<path d="M308.067 234.974C307.041 234.974 306.214 234.66 305.587 234.034C304.974 233.407 304.667 232.567 304.667 231.514V224.094C304.667 223.054 304.974 222.22 305.587 221.594C306.214 220.967 307.041 220.654 308.067 220.654C309.107 220.654 309.934 220.967 310.547 221.594C311.174 222.207 311.487 223.04 311.487 224.094V224.434C311.487 224.567 311.421 224.634 311.287 224.634L310.247 224.694C310.114 224.694 310.047 224.627 310.047 224.494V223.994C310.047 223.367 309.867 222.86 309.507 222.474C309.147 222.087 308.667 221.894 308.067 221.894C307.481 221.894 307.001 222.087 306.627 222.474C306.267 222.86 306.087 223.367 306.087 223.994V231.634C306.087 232.26 306.267 232.767 306.627 233.154C307.001 233.54 307.481 233.734 308.067 233.734C308.667 233.734 309.147 233.54 309.507 233.154C309.867 232.767 310.047 232.26 310.047 231.634V231.134C310.047 231 310.114 230.934 310.247 230.934L311.287 230.994C311.421 230.994 311.487 231.06 311.487 231.194V231.514C311.487 232.567 311.174 233.407 310.547 234.034C309.921 234.66 309.094 234.974 308.067 234.974Z" fill="#F4EFE6"/>
<path d="M293.741 234.974C292.715 234.974 291.888 234.66 291.261 234.034C290.648 233.407 290.341 232.567 290.341 231.514V224.094C290.341 223.054 290.648 222.22 291.261 221.594C291.888 220.967 292.715 220.654 293.741 220.654C294.781 220.654 295.608 220.967 296.221 221.594C296.848 222.207 297.161 223.04 297.161 224.094V224.434C297.161 224.567 297.095 224.634 296.961 224.634L295.921 224.694C295.788 224.694 295.721 224.627 295.721 224.494V223.994C295.721 223.367 295.541 222.86 295.181 222.474C294.821 222.087 294.341 221.894 293.741 221.894C293.155 221.894 292.675 222.087 292.301 222.474C291.941 222.86 291.761 223.367 291.761 223.994V231.634C291.761 232.26 291.941 232.767 292.301 233.154C292.675 233.54 293.155 233.734 293.741 233.734C294.341 233.734 294.821 233.54 295.181 233.154C295.541 232.767 295.721 232.26 295.721 231.634V231.134C295.721 231 295.788 230.934 295.921 230.934L296.961 230.994C297.095 230.994 297.161 231.06 297.161 231.194V231.514C297.161 232.567 296.848 233.407 296.221 234.034C295.595 234.66 294.768 234.974 293.741 234.974Z" fill="#F4EFE6"/>
<path d="M279.26 234.974C278.234 234.974 277.4 234.654 276.76 234.014C276.134 233.374 275.82 232.527 275.82 231.474V224.154C275.82 223.1 276.134 222.254 276.76 221.614C277.4 220.974 278.234 220.654 279.26 220.654C280.3 220.654 281.14 220.974 281.78 221.614C282.42 222.254 282.74 223.1 282.74 224.154V231.474C282.74 232.514 282.42 233.36 281.78 234.014C281.14 234.654 280.3 234.974 279.26 234.974ZM279.26 233.734C279.874 233.734 280.367 233.534 280.74 233.134C281.127 232.72 281.32 232.194 281.32 231.554V224.094C281.32 223.44 281.127 222.914 280.74 222.514C280.367 222.1 279.874 221.894 279.26 221.894C278.66 221.894 278.174 222.1 277.8 222.514C277.427 222.914 277.24 223.44 277.24 224.094V231.554C277.24 232.194 277.427 232.72 277.8 233.134C278.174 233.534 278.66 233.734 279.26 233.734Z" fill="#F4EFE6"/>
<path d="M265.16 234.974C264.173 234.974 263.373 234.647 262.76 233.994C262.147 233.34 261.84 232.487 261.84 231.434V230.974C261.84 230.84 261.907 230.774 262.04 230.774H263.02C263.153 230.774 263.22 230.84 263.22 230.974V231.374C263.22 232.08 263.4 232.654 263.76 233.094C264.12 233.52 264.587 233.734 265.16 233.734C265.72 233.734 266.187 233.527 266.56 233.114C266.933 232.7 267.12 232.154 267.12 231.474C267.12 231.02 267.027 230.634 266.84 230.314C266.667 229.98 266.433 229.694 266.14 229.454C265.86 229.2 265.387 228.82 264.72 228.314C264.053 227.82 263.527 227.4 263.14 227.054C262.753 226.694 262.433 226.267 262.18 225.774C261.94 225.28 261.82 224.7 261.82 224.034C261.82 222.994 262.12 222.174 262.72 221.574C263.32 220.96 264.1 220.654 265.06 220.654C266.073 220.654 266.88 220.987 267.48 221.654C268.093 222.307 268.4 223.18 268.4 224.274V224.774C268.4 224.907 268.333 224.974 268.2 224.974H267.2C267.067 224.974 267 224.907 267 224.774V224.254C267 223.547 266.82 222.98 266.46 222.554C266.113 222.114 265.647 221.894 265.06 221.894C264.527 221.894 264.087 222.087 263.74 222.474C263.393 222.847 263.22 223.38 263.22 224.074C263.22 224.487 263.293 224.854 263.44 225.174C263.6 225.48 263.833 225.774 264.14 226.054C264.447 226.334 264.9 226.7 265.5 227.154C266.3 227.74 266.893 228.22 267.28 228.594C267.68 228.954 267.987 229.354 268.2 229.794C268.413 230.22 268.52 230.74 268.52 231.354C268.52 232.447 268.207 233.327 267.58 233.994C266.953 234.647 266.147 234.974 265.16 234.974Z" fill="#F4EFE6"/>
<rect x="196" y="225.314" width="51" height="3" fill="#CEA538"/>
<path d="M2.2002 8.64668C20.6607 8.35129 39.8029 8.63369 58.3438 8.63496V8.63594L155.272 8.67989C155.062 17.9184 155.24 28.274 155.293 37.6955L155.307 41.9914L155.305 82.3195L155.307 106.525C155.304 112.089 155.478 118.006 154.985 123.257C152.578 148.957 141.649 169.609 123.023 186.088C115.814 191.961 108.118 197.66 100.356 203.379C93.0835 208.738 85.7479 214.116 78.7686 219.629C76.7911 218.033 74.3434 216.235 72.21 214.668L69.7549 212.854L47.4355 196.023C40.3807 190.701 34.3455 186.486 28.3213 180.404L27.7383 179.81C16.9843 168.525 9.23539 154.485 5.25977 139.088L4.88672 137.594C1.69707 124.194 2.23187 115.024 2.23438 101.01L2.24219 72.9973V72.9953L2.2002 8.64668Z" stroke="#CEA538" stroke-width="4.39627"/>
<path d="M82.9551 69.8678V41.9173L84.8125 40.0599H92.3777L94.235 41.9173V49.1201H90.7469V43.8652L90.4298 43.5481H86.7151L86.398 43.8652V67.9652L86.7151 68.2823H90.4298L90.7469 67.9652V62.7103H94.235V69.9131L92.3777 71.7704H84.8125L82.9551 69.8678Z" fill="#CEA538"/>
<path d="M74.9409 40.0604H78.429V71.7709H74.9409V60.2192L67.3757 45.5418V71.7709H63.8875V40.0604H68.327L74.9409 52.9711V40.0604Z" fill="#CEA538"/>
<path d="M81.6115 162.891V131.612L83.69 129.533H92.1562L94.2347 131.612V139.672H90.3312V133.792L89.9763 133.437H85.8192L85.4644 133.792V160.762L85.8192 161.117H89.9763L90.3312 160.762V154.881H94.2347V162.942L92.1562 165.02H83.69L81.6115 162.891Z" fill="#CEA538"/>
<path d="M63.8881 162.943V154.883H67.7917V160.763L68.1465 161.118H72.3036L72.6584 160.763V149.61L72.3036 149.255H66.0173L63.9388 147.177V131.664L66.0173 129.585H74.4835L76.562 131.664V139.725H72.6584V133.844L72.3036 133.489H68.1465L67.7917 133.844V144.997L68.1465 145.352H74.4328L76.5113 147.43V162.943L74.4328 165.022H65.9666L63.8881 162.943Z" fill="#CEA538"/>
<path d="M2.93097 109.28L169.419 79.9717" stroke="#CEA538" stroke-width="4.39627" stroke-miterlimit="10"/>
<path d="M108.331 108.547L93.8915 94.1077" stroke="#CEA538" stroke-width="4.39627" stroke-miterlimit="10"/>
<path d="M97.7705 108.547L84.8843 95.658" stroke="#CEA538" stroke-width="4.39627" stroke-miterlimit="10"/>
<path d="M87.2134 108.547L75.9698 97.3036" stroke="#CEA538" stroke-width="4.39627" stroke-miterlimit="10"/>
<path d="M76.6528 108.547L66.9247 98.8191" stroke="#CEA538" stroke-width="4.39627" stroke-miterlimit="10"/>
<path d="M66.0953 108.547L57.9461 100.401" stroke="#CEA538" stroke-width="4.39627" stroke-miterlimit="10"/>
<path d="M55.5348 108.547L49.0917 102.104" stroke="#CEA538" stroke-width="4.39627" stroke-miterlimit="10"/>
</svg>
