<svg width="444" height="565" viewBox="0 0 444 565" fill="none" xmlns="http://www.w3.org/2000/svg">
<path d="M5.75195 6.0957C53.9998 5.32371 104.03 6.06602 152.487 6.06934V6.07031L405.818 6.1875C405.227 32.1988 405.813 61.5983 405.898 87.6836L405.908 93.2471L405.902 198.647V198.648L405.908 261.913C405.902 276.455 406.356 291.919 405.069 305.643V305.644C398.778 372.799 370.225 426.77 321.561 469.835C302.709 485.192 282.587 500.095 262.29 515.05C243.281 529.055 224.111 543.112 205.869 557.521C198.539 551.603 188.735 544.629 182.311 539.812L123.977 495.822C104.957 481.474 88.7741 470.205 72.5322 453.485H72.5332C43.501 423.033 22.8414 384.901 12.7705 343.112C4.95543 310.281 5.69668 287.164 5.8252 254.224L5.83984 247.498L5.85938 174.283V174.278L5.75195 6.0957Z" stroke="#1084FE" stroke-width="11.49"/>
<path d="M210.027 230.874V206.524L211.645 204.906H218.236L219.854 206.524V212.799H216.815V208.221L216.539 207.945H213.303L213.026 208.221V229.217L213.303 229.493H216.539L216.815 229.217V224.639H219.854V230.914L218.236 232.532H211.645L210.027 230.874Z" fill="#1084FE"/>
<path d="M203.045 204.906H206.084V232.532H203.045V222.468L196.455 209.681V232.532H193.416V204.906H197.283L203.045 216.154V204.906Z" fill="#1084FE"/>
<path d="M208.856 364.188V336.937L210.667 335.127H218.043L219.854 336.937V343.96H216.453V338.836L216.144 338.527H212.522L212.213 338.836V362.333L212.522 362.642H216.144L216.453 362.333V357.21H219.854V364.232L218.043 366.043H210.667L208.856 364.188Z" fill="#1084FE"/>
<path d="M193.416 364.233V357.21H196.817V362.334L197.126 362.643H200.747L201.057 362.334V352.617L200.747 352.308H195.271L193.46 350.497V336.982L195.271 335.172H202.647L204.457 336.982V344.005H201.057V338.881L200.747 338.572H197.126L196.817 338.881V348.598L197.126 348.907H202.602L204.413 350.718V364.233L202.602 366.044H195.227L193.416 364.233Z" fill="#1084FE"/>
<path d="M189.586 503.647H191.501C196.789 503.647 201.076 507.934 201.076 513.222V556.31L189.586 549.607V503.647Z" fill="#1084FE"/>
<path d="M224.056 503.647H222.141C216.853 503.647 212.566 507.934 212.566 513.222V557.267L224.056 549.607V503.647Z" fill="#1084FE"/>
<path d="M206.832 460.244L196.189 467.975L200.256 480.486H213.409L217.475 467.975L206.832 460.244Z" stroke="#1084FE" stroke-width="3.83002" stroke-miterlimit="10" stroke-linecap="round" stroke-linejoin="round"/>
<path d="M229.352 485.593L218.375 487.003L213.612 497.042C222.985 494.598 230.352 487.184 232.763 477.799" stroke="#1084FE" stroke-width="3.83002" stroke-miterlimit="10" stroke-linecap="round" stroke-linejoin="round"/>
<path d="M200.023 497.006L195.29 487.002L184.271 485.573C189.491 493.732 198.82 498.448 208.491 497.84" stroke="#1084FE" stroke-width="3.83002" stroke-miterlimit="10" stroke-linecap="round" stroke-linejoin="round"/>
<path d="M180.104 472.641L188.157 465.048L186.109 454.127C179.964 461.612 178.361 471.942 181.927 480.952" stroke="#1084FE" stroke-width="3.83002" stroke-miterlimit="10" stroke-linecap="round" stroke-linejoin="round"/>
<path d="M197.124 446.166L206.833 451.479L216.587 446.157C207.568 442.624 197.249 444.292 189.782 450.468" stroke="#1084FE" stroke-width="3.83002" stroke-miterlimit="10" stroke-linecap="round" stroke-linejoin="round"/>
<path d="M227.56 454.172L225.508 465.048L233.584 472.68C234.156 463.012 229.381 453.713 221.199 448.519" stroke="#1084FE" stroke-width="3.83002" stroke-miterlimit="10" stroke-linecap="round" stroke-linejoin="round"/>
<path d="M206.833 451.963V460.407" stroke="#1084FE" stroke-width="3.83002" stroke-miterlimit="10" stroke-linecap="round" stroke-linejoin="round"/>
<path d="M188.618 465.198L196.649 467.807" stroke="#1084FE" stroke-width="3.83002" stroke-miterlimit="10" stroke-linecap="round" stroke-linejoin="round"/>
<path d="M218.503 487.18L213.462 480.242" stroke="#1084FE" stroke-width="3.83002" stroke-miterlimit="10" stroke-linecap="round" stroke-linejoin="round"/>
<path d="M200.203 480.242L195.162 487.18" stroke="#1084FE" stroke-width="3.83002" stroke-miterlimit="10" stroke-linecap="round" stroke-linejoin="round"/>
<path d="M225.048 465.198L217.017 467.807" stroke="#1084FE" stroke-width="3.83002" stroke-miterlimit="10" stroke-linecap="round" stroke-linejoin="round"/>
<path d="M7.66003 308.316L442.791 231.716" stroke="#1084FE" stroke-width="11.49" stroke-miterlimit="10"/>
<path d="M283.134 306.401L245.394 268.662" stroke="#1084FE" stroke-width="11.49" stroke-miterlimit="10"/>
<path d="M255.532 306.401L221.853 272.714" stroke="#1084FE" stroke-width="11.49" stroke-miterlimit="10"/>
<path d="M227.94 306.401L198.554 277.015" stroke="#1084FE" stroke-width="11.49" stroke-miterlimit="10"/>
<path d="M200.339 306.401L174.914 280.976" stroke="#1084FE" stroke-width="11.49" stroke-miterlimit="10"/>
<path d="M172.746 306.401L151.448 285.111" stroke="#1084FE" stroke-width="11.49" stroke-miterlimit="10"/>
<path d="M145.145 306.401L128.306 289.562" stroke="#1084FE" stroke-width="11.49" stroke-miterlimit="10"/>
<path d="M350.596 30.6402H373.011L378.514 36.1433V124.596H368.179V82.8526H355.428V124.596H345.093V36.1433L350.596 30.6402ZM368.314 41.9148L367.374 40.9753H356.368L355.428 41.9148V72.3833H368.179L368.314 41.9148Z" fill="#1084FE"/>
<path d="M321.35 30.6402H331.685V124.596H321.35V90.369L298.935 46.8811V124.596H288.599V30.6402H301.753L321.35 68.8935V30.6402Z" fill="#1084FE"/>
<path d="M264.875 124.596V30.6402H275.21V124.596H264.875Z" fill="#1084FE"/>
<path d="M251.481 124.596H222.757L218.999 120.837V30.6402H229.334V113.321L230.274 114.261H251.481V124.596Z" fill="#1084FE"/>
<path d="M200.125 124.595H177.71L172.207 119.092V36.2772L177.71 30.7741H200.125L205.628 36.2772V119.092L200.125 124.595ZM195.293 113.321V41.9146L194.353 40.975H183.347L182.408 41.9146V113.321L183.347 114.26H194.353L195.293 113.321Z" fill="#1084FE"/>
<path d="M153.2 93.1874H149.845L158.703 124.73H148.368L139.375 93.1874H135.483V124.73H125.148V30.7741H153.2L158.703 36.2772V87.5501L153.2 93.1874ZM135.617 82.9865H147.563L148.502 82.047V42.0488L147.563 41.1092H135.617V82.9865Z" fill="#1084FE"/>
<path d="M83.7258 30.6402H106.141L111.644 36.1433V124.596H101.309V82.8526H88.5578V124.596H78.2227V36.1433L83.7258 30.6402ZM101.443 41.9148L100.504 40.9753H89.4974L88.5578 41.9148V72.3833H101.309L101.443 41.9148Z" fill="#1084FE"/>
<path d="M31.2973 118.958V36.1433L36.8004 30.6402H59.2155L64.7186 36.1433V57.4846H54.3835V41.9148L53.444 40.9753H42.4378L41.4982 41.9148V113.321L42.4378 114.261H53.444L54.3835 113.321V97.7512H64.7186V119.092L59.2155 124.596H36.8004L31.2973 118.958Z" fill="#1084FE"/>
<path d="M304.616 154.875L310.141 162H305.791L300.566 154.95H298.641L298.616 162.025H295.241V145.4H303.416C307.016 145.4 309.191 147.35 309.191 150.15C309.191 152.625 307.616 154.525 304.616 154.875ZM298.641 148.5V151.825H303.416C304.916 151.825 305.741 151.15 305.741 150.125C305.741 149.1 304.916 148.5 303.416 148.5H298.641Z" fill="#1084FE"/>
<path d="M276.484 158.875V162H263.309V145.375H276.309V148.5H266.709V152.05H274.959V155.15H266.709V158.875H276.484Z" fill="#1084FE"/>
<path d="M243.396 162H239.996V145.375H243.396V162Z" fill="#1084FE"/>
<path d="M220.105 162H216.705V151.475L212.155 160.35H209.105L204.555 151.475V162H201.155V145.375H205.255L210.63 155.95L216.03 145.375H220.105V162Z" fill="#1084FE"/>
<path d="M182.398 158.875V162H169.223V145.375H182.223V148.5H172.623V152.05H180.873V155.15H172.623V158.875H182.398Z" fill="#1084FE"/>
<path d="M145.641 154.875L151.166 162H146.816L141.591 154.95H139.666L139.641 162.025H136.266V145.4H144.441C148.041 145.4 150.216 147.35 150.216 150.15C150.216 152.625 148.641 154.525 145.641 154.875ZM139.666 148.5V151.825H144.441C145.941 151.825 146.766 151.15 146.766 150.125C146.766 149.1 145.941 148.5 144.441 148.5H139.666Z" fill="#1084FE"/>
<path d="M107.1 154.95L107.075 162.025H103.7V145.4H111.875C115.475 145.4 117.65 147.35 117.65 150.15C117.65 152.9 115.475 154.95 111.875 154.95H107.1ZM107.1 151.825H111.875C113.375 151.825 114.2 151.15 114.2 150.125C114.2 149.1 113.375 148.5 111.875 148.5H107.1V151.825Z" fill="#1084FE"/>
</svg>
