<svg width="170" height="217" viewBox="0 0 170 217" fill="none" xmlns="http://www.w3.org/2000/svg">
<path d="M2.2002 2.33301C20.6607 2.03762 39.8029 2.32002 58.3438 2.32129V2.32227L155.272 2.36621C155.062 11.6047 155.24 21.9603 155.293 31.3818L155.307 35.6777L155.305 76.0059L155.307 100.211C155.304 105.775 155.478 111.692 154.985 116.943C152.578 142.643 141.649 163.296 123.023 179.774C115.814 185.647 108.118 191.346 100.356 197.065C93.0835 202.424 85.7479 207.802 78.7686 213.315C76.7911 211.719 74.3434 209.922 72.21 208.354L69.7549 206.54L47.4355 189.709C40.3807 184.387 34.3455 180.172 28.3213 174.091L27.7383 173.496C16.9843 162.211 9.23539 148.171 5.25977 132.774L4.88672 131.28C1.69707 117.881 2.23187 108.711 2.23438 94.6963L2.24219 66.6836V66.6816L2.2002 2.33301Z" stroke="#CEA538" stroke-width="4.39627"/>
<path d="M82.9551 63.5542V35.6037L84.8125 33.7463H92.3777L94.235 35.6037V42.8065H90.7468V37.5516L90.4297 37.2345H86.7151L86.398 37.5516V61.6516L86.7151 61.9687H90.4297L90.7468 61.6516V56.3967H94.235V63.5995L92.3777 65.4568H84.8125L82.9551 63.5542Z" fill="#CEA538"/>
<path d="M74.9409 33.7468H78.429V65.4573H74.9409V53.9056L67.3757 39.2282V65.4573H63.8875V33.7468H68.327L74.9409 46.6575V33.7468Z" fill="#CEA538"/>
<path d="M81.6115 156.577V125.298L83.69 123.22H92.1562L94.2347 125.298V133.359H90.3312V127.478L89.9763 127.123H85.8193L85.4644 127.478V154.448L85.8193 154.803H89.9763L90.3312 154.448V148.568H94.2347V156.628L92.1562 158.707H83.69L81.6115 156.577Z" fill="#CEA538"/>
<path d="M63.8881 156.629V148.569H67.7917V154.45L68.1465 154.804H72.3036L72.6584 154.45V143.296L72.3036 142.942H66.0173L63.9388 140.863V125.35L66.0173 123.272H74.4835L76.562 125.35V133.411H72.6584V127.53L72.3036 127.175H68.1465L67.7917 127.53V138.683L68.1465 139.038H74.4328L76.5113 141.117V156.629L74.4328 158.708H65.9666L63.8881 156.629Z" fill="#CEA538"/>
<path d="M2.93097 102.966L169.419 73.658" stroke="#CEA538" stroke-width="4.39627" stroke-miterlimit="10"/>
<path d="M108.331 102.234L93.8915 87.7939" stroke="#CEA538" stroke-width="4.39627" stroke-miterlimit="10"/>
<path d="M97.7705 102.234L84.8843 89.3442" stroke="#CEA538" stroke-width="4.39627" stroke-miterlimit="10"/>
<path d="M87.2134 102.234L75.9698 90.99" stroke="#CEA538" stroke-width="4.39627" stroke-miterlimit="10"/>
<path d="M76.6528 102.234L66.9247 92.5054" stroke="#CEA538" stroke-width="4.39627" stroke-miterlimit="10"/>
<path d="M66.0953 102.234L57.9461 94.0876" stroke="#CEA538" stroke-width="4.39627" stroke-miterlimit="10"/>
<path d="M55.5348 102.234L49.0917 95.7905" stroke="#CEA538" stroke-width="4.39627" stroke-miterlimit="10"/>
</svg>
